Coordinates
version=1
nRows=54
nColumns=12
inDegrees=yes

Units are S.I. units (second, meters, Newtons, ...)
Angles are in degrees

endheader
time	SC_y	SC_z	SC_x	AC_y	AC_z	AC_x	GH_y	GH_z	GH_yy	EL_x	PS_y
       0.0              -29.13          34.08          34.81          38.67          9.467          13.65          150.0          70.63          119.9          29.02          25.06
   0.03153              -29.14          34.08          34.81          38.67          9.463          13.65          150.0          70.63          119.9          29.03          25.08
   0.06306              -29.14          34.08          34.81          38.67          9.459          13.65          150.0          70.63          119.9          29.05          25.09
   0.09459              -29.14          34.07          34.81          38.68          9.454          13.65          150.0          70.62          119.9          29.06          25.11
    0.1261              -29.14          34.07           34.8          38.68          9.449          13.64          150.0          70.62          119.9          29.07          25.13
    0.1577              -29.14          34.07           34.8          38.69          9.444          13.64          150.0          70.61          119.9          29.09          25.16
    0.1892              -29.15          34.07           34.8          38.69          9.439          13.64          150.0          70.61          119.9          29.11          25.18
    0.2207              -29.15          34.06           34.8           38.7          9.433          13.64          150.0           70.6          119.9          29.12           25.2
    0.2522              -29.15          34.06          34.79           38.7          9.427          13.63          150.0          70.59          119.9          29.14          25.23
    0.2838              -29.16          34.06          34.79          38.71           9.42          13.63          149.9          70.59          119.9          29.16          25.26
    0.3153              -29.16          34.06          34.78          38.72          9.413          13.63          149.9          70.58          119.9          29.18          25.29
    0.3468              -29.16          34.05          34.78          38.72          9.405          13.62          149.9          70.57          119.9           29.2          25.32
    0.3784              -29.17          34.05          34.77          38.73          9.397          13.62          149.9          70.57          119.9          29.23          25.36
    0.4099              -29.17          34.04          34.77          38.74          9.388          13.61          149.9          70.56          119.9          29.26           25.4
    0.4414              -29.18          34.04          34.76          38.75          9.378          13.61          149.9          70.55          119.9          29.28          25.44
     0.473              -29.18          34.04          34.76          38.76          9.367           13.6          149.8          70.54          119.9          29.31          25.49
    0.5045              -29.19          34.03          34.75          38.77          9.356           13.6          149.8          70.53          119.9          29.35          25.53
     0.536              -29.19          34.02          34.74          38.78          9.343          13.59          149.8          70.52          119.9          29.39          25.59
    0.5676               -29.2          34.02          34.74          38.79          9.329          13.58          149.8           70.5          119.9          29.43          25.65
    0.5991              -29.21          34.01          34.73          38.81          9.314          13.57          149.7          70.49          119.9          29.47          25.71
    0.6306              -29.21           34.0          34.72          38.82          9.298          13.57          149.7          70.47          119.9          29.52          25.78
    0.6622              -29.22           34.0          34.71          38.84           9.28          13.56          149.7          70.46          119.9          29.57          25.86
    0.6937              -29.23          33.99           34.7          38.86           9.26          13.55          149.6          70.44          119.9          29.63          25.94
    0.7252              -29.24          33.98          34.68          38.88          9.237          13.53          149.6          70.42          119.9          29.69          26.04
    0.7567              -29.26          33.97          34.67           38.9          9.213          13.52          149.5          70.39          119.8          29.77          26.14
    0.7883              -29.27          33.96          34.65          38.93          9.185          13.51          149.5          70.37          119.8          29.85          26.26
    0.8198              -29.28          33.94          34.64          38.96          9.154          13.49          149.4          70.34          119.8          29.94          26.39
    0.8513               -29.3          33.93          34.62          38.99           9.12          13.47          149.3          70.31          119.8          30.04          26.54
    0.8829              -29.32          33.91          34.59          39.03           9.08          13.45          149.3          70.27          119.8          30.15          26.71
    0.9144              -29.34          33.89          34.57          39.07          9.036          13.43          149.2          70.23          119.8          30.28           26.9
    0.9459              -29.37          33.87          34.54          39.12          8.985           13.4          149.1          70.18          119.8          30.43          27.12
    0.9775              -29.39          33.84          34.51          39.17          8.926          13.37          149.0          70.12          119.8           30.6          27.36
     1.009              -29.43          33.81          34.47          39.23          8.859          13.33          148.8          70.06          119.8           30.8          27.65
     1.041              -29.46          33.78          34.42          39.31          8.781          13.29          148.7          69.99          119.8          31.03          27.99
     1.072              -29.51          33.74          34.37          39.39          8.689          13.25          148.5           69.9          119.7           31.3          28.38
     1.104              -29.56          33.69          34.31          39.49          8.581          13.19          148.3           69.8          119.7          31.61          28.84
     1.135              -29.62          33.63          34.23          39.61          8.453          13.12          148.0          69.68          119.7          31.99          29.39
     1.167               -29.7          33.57          34.15          39.76          8.299          13.04          147.7          69.53          119.7          32.44          30.04
     1.198              -29.78          33.49          34.04          39.93          8.113          12.94          147.4          69.36          119.6          32.98          30.84
      1.23              -29.89          33.39          33.91          40.14          7.885          12.82          146.9          69.14          119.6          33.65          31.81
     1.261              -30.03          33.26          33.75           40.4          7.605          12.68          146.4          68.88          119.5          34.47           33.0
     1.293               -30.2          33.11          33.55          40.73          7.255          12.49          145.7          68.55          119.5          35.49          34.49
     1.324              -30.41          32.92           33.3          41.14          6.814          12.26          144.8          68.13          119.4          36.78          36.37
     1.356              -30.68          32.67          32.98          41.67          6.253          11.97          143.7           67.6          119.3          38.42          38.77
     1.387              -31.02          32.36          32.57          42.34          5.536          11.59          142.3          66.93          119.1          40.51          41.82
     1.419              -31.47          31.95          32.04          43.19          4.615          11.11          140.4          66.06          118.9           43.2          45.75
      1.45              -32.03          31.44          31.37          44.29          3.439          10.49          138.1          64.95          118.7          46.64          50.77
     1.482              -32.74          30.79          30.52          45.67          1.961          9.716          135.2          63.55          118.4          50.96          57.07
     1.513              -33.61           30.0          29.49          47.35          0.159           8.77          131.6          61.85          118.0          56.23          64.76
     1.545              -34.61          29.08           28.3           49.3          -1.93          7.675          127.5          59.89          117.6          62.34          73.66
     1.577               -35.7          28.09           27.0          51.41         -4.191          6.488          123.0          57.75          117.2          68.95          83.31
     1.608              -36.79           27.1          25.71          53.52         -6.452          5.302          118.6          55.62          116.7          75.56          92.95
      1.64              -37.79          26.19          24.51          55.47         -8.541          4.206          114.5          53.65          116.3          81.66          101.9
     1.671              -38.66           25.4          23.48          57.15         -10.34           3.26          110.9          51.95          115.9          86.93          109.5
